<svg width="56" height="57" viewBox="0 0 56 57" fill="none" xmlns="http://www.w3.org/2000/svg">
<rect x="4" y="4.5" width="48" height="48" rx="24" fill="#E7EDF7"/>
<rect x="4" y="4.5" width="48" height="48" rx="24" stroke="#F3F6FC" stroke-width="8"/>
<path d="M19.3333 33.0425L26.3333 37.0387V29.1612L19.3333 25.165V33.0425ZM28.6667 37.0387L35.6667 33.0425V25.165L28.6667 29.1612V37.0387ZM20.5875 23.2387L27.5 27.1775L34.4125 23.2387L27.5 19.3L20.5875 23.2387ZM17 34.3937V23.9287C17 23.5071 17.1023 23.1238 17.3068 22.7787C17.5106 22.4338 17.7972 22.1558 18.1667 21.945L26.3333 17.3163C26.7028 17.1054 27.0917 17 27.5 17C27.9083 17 28.2972 17.1054 28.6667 17.3163L36.8333 21.945C37.2028 22.1558 37.4898 22.4338 37.6943 22.7787C37.8981 23.1238 38 23.5071 38 23.9287V33.0713C38 33.4929 37.8981 33.8762 37.6943 34.2213C37.4898 34.5662 37.2028 34.8442 36.8333 35.055L28.6667 39.6838C28.2972 39.8946 27.9083 40 27.5 40C27.0917 40 26.7028 39.8946 26.3333 39.6838L17 34.3937Z" fill="#5083C1"/>
</svg>
