<svg width="56" height="57" viewBox="0 0 56 57" fill="none" xmlns="http://www.w3.org/2000/svg">
<rect x="4" y="4.5" width="48" height="48" rx="24" fill="#E7EDF7"/>
<rect x="4" y="4.5" width="48" height="48" rx="24" stroke="#F3F6FC" stroke-width="8"/>
<path d="M27.4998 35.7552L22.4101 38.8127C22.1853 38.9554 21.9502 39.0166 21.705 38.9962C21.4597 38.9758 21.2451 38.8943 21.0611 38.7516C20.8771 38.6089 20.734 38.4307 20.6318 38.2171C20.5296 38.0027 20.5092 37.763 20.5705 37.498L21.9196 31.7193L17.4125 27.8362C17.2081 27.6528 17.0806 27.4436 17.0299 27.2088C16.9784 26.9748 16.9935 26.7457 17.0752 26.5215C17.157 26.2973 17.2796 26.1138 17.4432 25.9711C17.6067 25.8285 17.8315 25.7367 18.1177 25.696L24.0658 25.1762L26.3653 19.7338C26.4675 19.4892 26.6262 19.3058 26.8412 19.1835C27.0554 19.0612 27.2749 19 27.4998 19C27.7246 19 27.9445 19.0612 28.1596 19.1835C28.3738 19.3058 28.532 19.4892 28.6342 19.7338L30.9337 25.1762L36.8818 25.696C37.168 25.7367 37.3929 25.8285 37.5564 25.9711C37.7199 26.1138 37.8425 26.2973 37.9243 26.5215C38.0061 26.7457 38.0216 26.9748 37.9709 27.2088C37.9194 27.4436 37.7914 27.6528 37.587 27.8362L33.08 31.7193L34.429 37.498C34.4903 37.763 34.4699 38.0027 34.3677 38.2171C34.2655 38.4307 34.1224 38.6089 33.9384 38.7516C33.7545 38.8943 33.5399 38.9758 33.2946 38.9962C33.0493 39.0166 32.8142 38.9554 32.5894 38.8127L27.4998 35.7552Z" fill="#5083C1"/>
</svg>
