<svg width="56" height="56" viewBox="0 0 56 56" fill="none" xmlns="http://www.w3.org/2000/svg">
<rect x="4" y="4" width="48" height="48" rx="24" fill="#E7EDF7"/>
<rect x="4" y="4" width="48" height="48" rx="24" stroke="#F3F6FC" stroke-width="8"/>
<path d="M26.5 30.6093H33C33.2833 30.6093 33.5207 30.5165 33.712 30.3307C33.904 30.1456 34 29.916 34 29.6419C34 29.3678 33.904 29.1378 33.712 28.9521C33.5207 28.767 33.2833 28.6744 33 28.6744H28.5L26.5 30.6093ZM22.5 30.6093H24.05C24.1833 30.6093 24.3083 30.581 24.425 30.5242C24.5417 30.4681 24.65 30.3997 24.75 30.3191L30.35 24.9498C30.45 24.853 30.5 24.7321 30.5 24.587C30.5 24.4419 30.45 24.3209 30.35 24.2242L28.6 22.5312C28.5 22.4344 28.375 22.3861 28.225 22.3861C28.075 22.3861 27.95 22.4344 27.85 22.5312L22.3 27.9489C22.2167 28.0456 22.146 28.1504 22.088 28.2633C22.0293 28.3761 22 28.4971 22 28.6261V30.1256C22 30.2546 22.05 30.3675 22.15 30.4642C22.25 30.561 22.3667 30.6093 22.5 30.6093ZM18 36.0028V20.9349C18 20.4028 18.196 19.9471 18.588 19.5679C18.9793 19.1893 19.45 19 20 19H36C36.55 19 37.021 19.1893 37.413 19.5679C37.8043 19.9471 38 20.4028 38 20.9349V32.5442C38 33.0763 37.8043 33.532 37.413 33.9112C37.021 34.2898 36.55 34.4791 36 34.4791H22L19.7 36.7042C19.3833 37.0106 19.0207 37.079 18.612 36.9093C18.204 36.7403 18 36.4382 18 36.0028ZM20 33.681L21.175 32.5442H36V20.9349H20V33.681Z" fill="#5083C1"/>
</svg>
