<svg width="56" height="57" viewBox="0 0 56 57" fill="none" xmlns="http://www.w3.org/2000/svg">
<rect x="4" y="4.5" width="48" height="48" rx="24" fill="#E7EDF7"/>
<rect x="4" y="4.5" width="48" height="48" rx="24" stroke="#F3F6FC" stroke-width="8"/>
<path d="M35.5834 25.7499C35.5838 24.4444 35.2473 23.1609 34.6062 22.0236C33.9652 20.8863 33.0414 19.9337 31.9243 19.2581C30.8071 18.5826 29.5345 18.2068 28.2296 18.1673C26.9247 18.1278 25.6316 18.4258 24.4757 19.0325C23.3197 19.6393 22.34 20.5342 21.6313 21.6306C20.9226 22.727 20.5089 23.9878 20.4304 25.291C20.3519 26.5942 20.6111 27.8955 21.183 29.0691C21.7549 30.2427 22.6201 31.2488 23.6949 31.9899L20.4167 37.6666L22.8607 37.7674L24.1694 39.8333L27.9242 33.3289C27.9502 33.3289 27.974 33.3333 28 33.3333C28.026 33.3333 28.0499 33.33 28.0759 33.3289L31.8307 39.8333L33.1654 37.8118L35.5834 37.6666L32.3052 31.9899C33.3166 31.2936 34.1435 30.3617 34.7146 29.2746C35.2857 28.1875 35.5838 26.9779 35.5834 25.7499ZM22.5834 25.7499C22.5834 24.6786 22.901 23.6314 23.4962 22.7406C24.0914 21.8498 24.9374 21.1556 25.9272 20.7456C26.9169 20.3356 28.006 20.2284 29.0568 20.4374C30.1075 20.6464 31.0726 21.1623 31.8302 21.9198C32.5877 22.6773 33.1036 23.6425 33.3126 24.6932C33.5216 25.7439 33.4143 26.833 33.0044 27.8228C32.5944 28.8126 31.9001 29.6585 31.0094 30.2537C30.1186 30.8489 29.0713 31.1666 28 31.1666C26.5634 31.1666 25.1857 30.5959 24.1699 29.5801C23.154 28.5643 22.5834 27.1865 22.5834 25.7499Z" fill="#5083C1"/>
<path d="M28 29C29.7949 29 31.25 27.5449 31.25 25.75C31.25 23.9551 29.7949 22.5 28 22.5C26.2051 22.5 24.75 23.9551 24.75 25.75C24.75 27.5449 26.2051 29 28 29Z" fill="#5083C1"/>
</svg>
